inDegrees=no
num_controls=7
num_derivatives=13
num_iterations=162
num_multipliers=7
num_parameters=0
num_slacks=7
num_states=26
objective=5.136023
objective_accelerations=0.409625
objective_balance=0.088859
objective_effort=0.350060
objective_height=4.184611
objective_ligament=0.102867
solver_duration=1797.323461
status=Solve_Succeeded
success=true
DataType=double
version=3
OpenSimVersion=4.4-2022-07-23-0e9fedc
endheader
time	/jointset/ground_pelvis/pelvis_tilt/value	/jointset/ground_pelvis/pelvis_tx/value	/jointset/ground_pelvis/pelvis_ty/value	/jointset/hip_l/hip_flexion_l/value	/jointset/hip_l/hip_adduction_l/value	/jointset/hip_l/hip_rotation_l/value	/jointset/back/lumbar_extension/value	/jointset/patellofemoral_l/patellar_flexion_l/value	/jointset/knee_l/knee_flexion_l/value	/jointset/knee_l/knee_adduction_l/value	/jointset/knee_l/knee_rotation_l/value	/jointset/ankle_l/ankle_angle_l/value	/jointset/subtalar_l/subtalar_angle_l/value	/jointset/ground_pelvis/pelvis_tilt/speed	/jointset/ground_pelvis/pelvis_tx/speed	/jointset/ground_pelvis/pelvis_ty/speed	/jointset/hip_l/hip_flexion_l/speed	/jointset/hip_l/hip_adduction_l/speed	/jointset/hip_l/hip_rotation_l/speed	/jointset/back/lumbar_extension/speed	/jointset/patellofemoral_l/patellar_flexion_l/speed	/jointset/knee_l/knee_flexion_l/speed	/jointset/knee_l/knee_adduction_l/speed	/jointset/knee_l/knee_rotation_l/speed	/jointset/ankle_l/ankle_angle_l/speed	/jointset/subtalar_l/subtalar_angle_l/speed	/forceset/tau_hip_flexion_l	/forceset/tau_hip_adduction_l	/forceset/tau_hip_rotation_l	/forceset/tau_knee_flexion_l	/forceset/tau_ankle_angle_l	/forceset/tau_subtalar_angle_l	/forceset/tau_lumbar_extension	lambda_cid13_p0	lambda_cid13_p1	lambda_cid13_p2	lambda_cid13_p3	lambda_cid13_p4	lambda_cid13_p5	lambda_cid14_p0	/jointset/ground_pelvis/pelvis_tilt/accel	/jointset/ground_pelvis/pelvis_tx/accel	/jointset/ground_pelvis/pelvis_ty/accel	/jointset/hip_l/hip_flexion_l/accel	/jointset/hip_l/hip_adduction_l/accel	/jointset/hip_l/hip_rotation_l/accel	/jointset/back/lumbar_extension/accel	/jointset/patellofemoral_l/patellar_flexion_l/accel	/jointset/knee_l/knee_flexion_l/accel	/jointset/knee_l/knee_adduction_l/accel	/jointset/knee_l/knee_rotation_l/accel	/jointset/ankle_l/ankle_angle_l/accel	/jointset/subtalar_l/subtalar_angle_l/accel	gamma_cid13_p0	gamma_cid13_p1	gamma_cid13_p2	gamma_cid13_p3	gamma_cid13_p4	gamma_cid13_p5	gamma_cid14_p0
1.5	-0.3771544148943148	-0.03530884450478759	0.8002245534726711	1.068720788465468	-0.30600222448795	-0.07949056541255331	-0.3251830838251249	0.5867030349847259	0.5867030349847222	-0.1729162577431467	0.1744244394749361	0.05828004477637869	-0.03971291141521954	0.5537963352445106	0.1947736368119535	0.3469185606614711	-1.816773344713955	0.05022210280161811	-0.5190758368652028	0.5800312292090327	-1.478059086821626	-1.478059086821412	0.005950956275808525	-0.0004031753616198339	-0.2944762568361274	0.009295310012711883	-0.2112730411082704	0.02837233596235231	-0.01996884683118683	-0.1871457847572916	0.09903619861862348	0.04081842977781307	0.2000458395722784	-7.292859586874362	-20.12598446288457	7.004481062195356	0.1302444852546229	-614.2036447329883	-59.59063435617758	-33.778641657163	0.4147669572081691	0.4329235922389872	-0.2124024021163258	-1.15716869350611	0.4323465441983784	-0.2592771020477085	1.376110834703173	-0.8926034123624361	-0.8926034123624429	-0.01073106062409467	-0.02692512110906743	-0.09779738549894615	0.4093166143794273	1.873809789135908e-08	8.57981287263684e-07	-1.961049002822493e-07	1.015634657204187e-07	1.026578233725309e-07	2.298339603966399e-07	1.113569524737718e-07
1.51	-0.3715961096613827	-0.03333966611295597	0.8036824532002692	1.05049718136024	-0.3054790320717699	-0.08469456425600295	-0.3193151968067865	0.5718799047640298	0.5718799047640759	-0.172858242846122	0.174420479976498	0.05533066144573304	-0.03960018835323189	0.5577889493832249	0.1990361066689338	0.3445941819987658	-1.827688120248658	0.05441889539878231	-0.5216487336642411	0.5934579867427268	-1.486353303825049	-1.486353303824985	0.005644041269185041	-0.000389867646964147	-0.2953521867072225	0.01325393981551494	-0.2045996618405698	0.02719059287142732	-0.01997094774458321	-0.1862688032418367	0.1006828425442456	0.03995036042766683	0.1947376222602915	-6.618528870183718	-19.95427740312034	7.076738153874845	-0.01535817993871606	-611.0720384900096	-59.84800415147641	-34.47945605733631	0.3801493105062392	0.4190403708944648	-0.2525133784004079	-1.01963234235838	0.4136373114541566	-0.2448924454829432	1.312730055670377	-0.7658061790426047	-0.7658061790650442	-0.04172646017470096	0.01536200299770435	-0.07524757414300697	0.3897090946893924	1.568041712775981e-08	9.059531803463979e-07	-1.986128615358148e-07	1.068738115536862e-07	1.096451610204973e-07	2.456923678707659e-07	1.149458910423037e-07
1.52	-0.3660001501534025	-0.03132863668486056	0.8071150975852291	1.032172226427889	-0.3049138133908608	-0.08992201136274731	-0.3133156878445129	0.5569802373063515	0.5569802373064402	-0.1728035080470469	0.1744166342122556	0.05237396745912871	-0.03944776440692517	0.5613271902540536	0.2031438440647128	0.341867492134001	-1.837042910139586	0.05862735575512284	-0.5237654895293294	0.6063556179951184	-1.493366534216884	-1.493366534216969	0.005294936682816255	-0.0003804285225195585	-0.2959383880274479	0.01723548687666119	-0.1979262825728129	0.02600884978048465	-0.01997304865801228	-0.1853918217263799	0.1023294864698518	0.03908229107749964	0.1894294049483694	-5.952125810598812	-19.78292471789251	7.151042196124828	-0.1476524378895608	-608.0662044668259	-60.14826054559828	-35.15465769905362	0.3238923036314397	0.4019770999985416	-0.2928646425282684	-0.8451715647510719	0.4346800960336533	-0.1680489152577404	1.270285578442936	-0.6364060900446717	-0.6364060900446717	-0.01916897657305137	-0.02769883915132755	-0.0398516753252468	0.4139000660480626	1.193000591884896e-08	9.468374023758581e-07	-1.99355035194634e-07	1.117951126678888e-07	1.14946695395083e-07	2.596423326369251e-07	1.175314565697828e-07
1.53	-0.360371080826368	-0.02927734111346794	0.8105185032368746	1.013761533870799	-0.304306501039792	-0.09516846097771538	-0.307189946872193	0.5420168918434733	0.542016891843482	-0.1727524677638315	0.1744129659556783	0.04941286952212808	-0.03925545294667502	0.5644082983460735	0.2070851274433477	0.3387500348510148	-1.844828646700668	0.06283366377127983	-0.5254505404752148	0.6186964104845306	-1.499082116859554	-1.499082116859595	0.00490763720800132	-0.0003520811684048755	-0.2962312016994251	0.02122800648184353	-0.1911907145344522	0.02468716875465024	-0.02001276978987145	-0.1845494426320933	0.1040648632701946	0.03813610611939162	0.1840543406570195	-5.261309100129199	-19.58250462886614	7.221378494939	-0.2841727823640189	-605.0892100029446	-60.41683012219042	-35.80128115562793	0.2884670984494263	0.3857062838655252	-0.3307027056081637	-0.7052266709025646	0.4132922412337486	-0.157521544088054	1.201551186931103	-0.5060920991174103	-0.5060920991107731	-0.04917989834275591	0.01835064375841824	-0.01648723153335048	0.3919747548770637	7.443568611794567e-09	9.801909739112361e-07	-1.98221059534035e-07	1.16303053768085e-07	1.184570637917016e-07	2.715645770258695e-07	1.190509382411432e-07
1.54	-0.3547135510111203	-0.0271875322428744	0.8138888310288042	0.99528099355428	-0.3036571883912402	-0.1004295187740717	-0.3009436829544266	0.5270029990046228	0.5270029990045271	-0.1727054343684331	0.1744096309968444	0.04645034524472724	-0.03902320692094885	0.5670192878965579	0.210846503904898	0.3352519201909985	-1.851012462026382	0.06702741526054037	-0.5266871258144707	0.6304602070835527	-1.503476009411794	-1.50347600941179	0.004493559116893447	-0.0003137689716719748	-0.2962236561073774	0.0252223999719759	-0.1844551464960328	0.02336548772883619	-0.02005249092190122	-0.1837070635377853	0.1058002400705359	0.03718992116130618	0.1786792763657267	-4.578645588960106	-19.38212364621658	7.293396485735883	-0.4054406383491415	-602.2404771042491	-60.72823549112466	-36.41647606147207	0.2298685953246475	0.365995716581378	-0.3689961179343159	-0.5247873176773828	0.4321687906543831	-0.07835579393184186	1.154886400365092	-0.3720680719583512	-0.3720680719583502	-0.02452469983152791	-0.0257058706277586	0.02022017747951186	0.4142748430380713	7.795704579107872e-09	1.005387953113342e-06	-2.123495919157596e-07	1.155837872643096e-07	1.290112467179953e-07	2.83503208520204e-07	1.221595376879015e-07
